<svg width="40" height="35" viewBox="0 0 40 35" fill="none" xmlns="http://www.w3.org/2000/svg">
<g clip-path="url(#clip0)">
<path d="M24.3333 0.921053C25.0833 0.921053 25.8333 1.28947 26.4167 1.84211L38.3333 14.9211C38.9167 15.5658 39.1667 16.3947 39.1667 17.3158V17.5C39.1667 18.4211 38.9167 19.25 38.3333 19.8947L26.3333 33.1579C25.75 33.8026 25.0833 34.0789 24.25 34.0789C23.4167 34.0789 22.75 33.7105 22.1667 33.1579C21.5833 32.5132 21.3333 31.7763 21.3333 30.9474C21.3333 30.1184 21.6667 29.2895 22.1667 28.7368L28 22.3816L29.4167 20.8158H3.75C2.16667 20.7237 0.833333 19.25 0.833333 17.5C0.833333 15.75 2.16667 14.2763 3.75 14.2763H29.5L28.0833 12.7105L22.25 6.35526C21.6667 5.71053 21.4167 4.97368 21.4167 4.14474C21.4167 3.31579 21.75 2.48684 22.25 1.93421C22.75 1.28947 23.5 0.921053 24.3333 0.921053V0.921053ZM24.3333 0C23.3333 0 22.4167 0.368421 21.6667 1.19737C20.1667 2.76316 20.1667 5.43421 21.6667 7L27.5 13.3553H3.75C1.66667 13.3553 0 15.1974 0 17.5C0 19.8026 1.66667 21.6447 3.75 21.6447H27.5L21.6667 28C20.1667 29.5658 20.1667 32.2368 21.6667 33.8026C22.4167 34.6316 23.3333 35 24.3333 35C25.3333 35 26.25 34.6316 27 33.8026L39 20.7237C39.75 19.8947 40.0833 18.7895 40.0833 17.6842V17.5V17.3158C40.0833 16.2105 39.75 15.1053 39 14.2763L26.9167 1.19737C26.25 0.368421 25.25 0 24.3333 0Z" fill="white"/>
</g>
<defs>
<clipPath id="clip0">
<rect width="40" height="35" fill="white"/>
</clipPath>
</defs>
</svg>